<?xml version="1.0" encoding="UTF-8"?>
<svg width="15px" height="21px" viewBox="0 0 15 21" version="1.1" xmlns="http://www.w3.org/2000/svg" xmlns:xlink="http://www.w3.org/1999/xlink">
    <!-- Generator: Sketch 54.1 (76490) - https://sketchapp.com -->
    <title>Group 2</title>
    <desc>Created with Sketch.</desc>
    <g id="Icons" stroke="none" stroke-width="1" fill="none" fill-rule="evenodd">
        <g id="Artboard" transform="translate(-61.000000, -13.000000)" fill="#FFFFFF">
            <g id="Group-2" transform="translate(60.000000, 13.000000)">
                <path d="M10.5647671,-0.144538145 L11.8504814,-0.144538145 C12.6789085,-0.144538145 13.3504814,0.52703473 13.3504814,1.35546186 L13.3504814,8.35546186 C13.3504814,9.18388898 12.6789085,9.85546186 11.8504814,9.85546186 L10.5647671,9.85546186 C9.73633997,9.85546186 9.06476709,9.18388898 9.06476709,8.35546186 L9.06476709,1.35546186 C9.06476709,0.52703473 9.73633997,-0.144538145 10.5647671,-0.144538145 Z" id="Rectangle-Copy" transform="translate(11.207624, 4.855462) rotate(130.000000) translate(-11.207624, -4.855462) "></path>
                <path d="M5.5,2.84217094e-14 L6.78571429,2.84217094e-14 C7.61414141,2.82695298e-14 8.28571429,0.671572875 8.28571429,1.5 L8.28571429,8.5 C8.28571429,9.32842712 7.61414141,10 6.78571429,10 L5.5,10 C4.67157288,10 4,9.32842712 4,8.5 L4,1.5 C4,0.671572875 4.67157288,2.8573889e-14 5.5,2.84217094e-14 Z" id="Rectangle-Copy-2" transform="translate(6.142857, 5.000000) scale(-1, 1) rotate(130.000000) translate(-6.142857, -5.000000) "></path>
                <path d="M10.5647671,10.8554619 L11.8504814,10.8554619 C12.6789085,10.8554619 13.3504814,11.5270347 13.3504814,12.3554619 L13.3504814,19.3554619 C13.3504814,20.183889 12.6789085,20.8554619 11.8504814,20.8554619 L10.5647671,20.8554619 C9.73633997,20.8554619 9.06476709,20.183889 9.06476709,19.3554619 L9.06476709,12.3554619 C9.06476709,11.5270347 9.73633997,10.8554619 10.5647671,10.8554619 Z" id="Rectangle-Copy-5" transform="translate(11.207624, 15.855462) scale(1, -1) rotate(130.000000) translate(-11.207624, -15.855462) "></path>
                <path d="M5.56476709,10.8554619 L6.85048138,10.8554619 C7.6789085,10.8554619 8.35048138,11.5270347 8.35048138,12.3554619 L8.35048138,19.3554619 C8.35048138,20.183889 7.6789085,20.8554619 6.85048138,20.8554619 L5.56476709,20.8554619 C4.73633997,20.8554619 4.06476709,20.183889 4.06476709,19.3554619 L4.06476709,12.3554619 C4.06476709,11.5270347 4.73633997,10.8554619 5.56476709,10.8554619 Z" id="Rectangle-Copy-4" transform="translate(6.207624, 15.855462) scale(-1, -1) rotate(130.000000) translate(-6.207624, -15.855462) "></path>
            </g>
        </g>
    </g>
</svg>