<svg xmlns="http://www.w3.org/2000/svg" width="138.086" height="18.58" viewBox="0 0 138.086 18.58">
  <path id="logo-dark" d="M100.739,16.028a9.162,9.162,0,0,1-2.387-6.519,9.727,9.727,0,0,1,2.435-6.872A8.4,8.4,0,0,1,107.264,0a7.96,7.96,0,0,1,6.17,2.558,9.348,9.348,0,0,1,2.337,6.561,9.7,9.7,0,0,1-2.411,6.842,8.254,8.254,0,0,1-6.377,2.619A8.154,8.154,0,0,1,100.739,16.028ZM103.388,4.8a7.161,7.161,0,0,0-1.373,4.511,7.144,7.144,0,0,0,1.349,4.486,4.384,4.384,0,0,0,3.668,1.751,4.526,4.526,0,0,0,3.741-1.666,6.205,6.205,0,0,0,1.242-3.09,10.347,10.347,0,0,0,.095-1.434,7.476,7.476,0,0,0-1.294-4.639,4.334,4.334,0,0,0-3.662-1.7,5.944,5.944,0,0,0-.654.035A4.4,4.4,0,0,0,103.388,4.8ZM2.374,16.144A8.9,8.9,0,0,1,0,9.656,9.518,9.518,0,0,1,2.649,2.7,9.11,9.11,0,0,1,9.448,0a11.95,11.95,0,0,1,4.37.7V4.09A8.118,8.118,0,0,0,9.668,3.028,5.668,5.668,0,0,0,5.3,4.8,6.515,6.515,0,0,0,3.662,9.412,6.284,6.284,0,0,0,5.225,13.88a5.426,5.426,0,0,0,4.162,1.672,8.528,8.528,0,0,0,4.432-1.172v3.21a11.265,11.265,0,0,1-5.078.989A8.485,8.485,0,0,1,2.374,16.144Zm125.311,2.118V.293h10V3.186h-6.518V7.764h6.054v2.88h-6.054v4.737h6.921v2.881Zm-52.356,0V.293h5.933q6.566,0,6.567,5.627A5.435,5.435,0,0,1,85.847,10.3,7.223,7.223,0,0,1,80.86,11.89H78.809v6.372Zm3.479-9.094h1.77q3.6,0,3.6-3.112,0-2.992-3.528-2.991H78.809ZM58.826,18.262V7.129q0-1.22.147-3.735H58.9a14.685,14.685,0,0,1-.561,2.2L53.577,18.262H50.928L46.106,5.7a20.605,20.605,0,0,1-.562-2.307h-.086q.135,1.99.134,4.321V18.262H42.431V.293h5l4.2,11.193a12.8,12.8,0,0,1,.7,2.466h.085q.269-1.062.757-2.49L57.41.293h4.858V18.262Zm-32.946,0V.293h3.478V18.262Zm80.06-6V11.23l-.44.031.44-.031V4.356h.56v0h.971v6.638h1.772l2.773-.2-2.773.2h1.219v1.267Z" fill="#988888" style="mix-blend-mode: darken;isolation: isolate"/>
</svg>
