<?xml version="1.0" encoding="UTF-8"?>
<svg width="24px" height="24px" viewBox="0 0 24 24" version="1.1" xmlns="http://www.w3.org/2000/svg" xmlns:xlink="http://www.w3.org/1999/xlink">
    <!-- Generator: Sketch 54.1 (76490) - https://sketchapp.com -->
    <title>good-mood-emoticon</title>
    <desc>Created with Sketch.</desc>
    <g id="Mockups" stroke="none" stroke-width="1" fill="none" fill-rule="evenodd">
        <g id="Main-Intro" transform="translate(-1072.000000, -864.000000)" fill="#ABABAB" fill-rule="nonzero">
            <g id="Group-9" transform="translate(770.000000, 842.000000)">
                <g id="good-mood-emoticon" transform="translate(302.000000, 22.000000)">
                    <path d="M12,0 C5.4,0 0,5.4 0,12 C0,18.6 5.4,24 12,24 C18.6,24 24,18.6 24,12 C24,5.4 18.6,0 12,0 Z M16.2,7.2 C17.16,7.2 18,8.04 18,9 C18,9.96 17.16,10.8 16.2,10.8 C15.24,10.8 14.4,9.96 14.4,9 C14.4,8.04 15.24,7.2 16.2,7.2 Z M7.8,7.2 C8.76,7.2 9.6,8.04 9.6,9 C9.6,9.96 8.76,10.8 7.8,10.8 C6.84,10.8 6,9.96 6,9 C6,8.04 6.84,7.2 7.8,7.2 Z M12,19.2 C8.88,19.2 6.24,17.16 5.28,14.4 L18.72,14.4 C17.76,17.16 15.12,19.2 12,19.2 Z" id="Shape"></path>
                </g>
            </g>
        </g>
    </g>
</svg>