<?xml version="1.0" encoding="UTF-8"?>
<svg width="24px" height="24px" viewBox="0 0 24 24" version="1.1" xmlns="http://www.w3.org/2000/svg" xmlns:xlink="http://www.w3.org/1999/xlink">
    <!-- Generator: Sketch 54.1 (76490) - https://sketchapp.com -->
    <title>Shape</title>
    <desc>Created with Sketch.</desc>
    <g id="Mockups" stroke="none" stroke-width="1" fill="none" fill-rule="evenodd">
        <g id="Main-Intro-Copy-2" transform="translate(-1291.000000, -1313.000000)" fill="#27BD8B" fill-rule="nonzero">
            <g id="Group-10" transform="translate(870.000000, 1290.000000)">
                <path d="M433,23 C426.4,23 421,28.4 421,35 C421,41.6 426.4,47 433,47 C439.6,47 445,41.6 445,35 C445,28.4 439.6,23 433,23 Z M437.2,30.2 C438.16,30.2 439,31.04 439,32 C439,32.96 438.16,33.8 437.2,33.8 C436.24,33.8 435.4,32.96 435.4,32 C435.4,31.04 436.24,30.2 437.2,30.2 Z M428.8,30.2 C429.76,30.2 430.6,31.04 430.6,32 C430.6,32.96 429.76,33.8 428.8,33.8 C427.84,33.8 427,32.96 427,32 C427,31.04 427.84,30.2 428.8,30.2 Z M433,42.2 C429.88,42.2 427.24,40.16 426.28,37.4 L439.72,37.4 C438.76,40.16 436.12,42.2 433,42.2 Z" id="Shape"></path>
            </g>
        </g>
    </g>
</svg>